<svg id="Capa_1" enable-background="new 0 0 512 512" height="512" viewBox="0 0 512 512" width="512" xmlns="http://www.w3.org/2000/svg"><g><path d="m0 33.5v445h512v-445zm482 119.333h-273.365l-36.553-89.333h309.918zm-452 295.667v-385h109.668l48.828 119.333h293.504v265.667z"/><path d="m209.302 346.699c0 15.676-12.753 28.429-28.429 28.429s-28.429-12.753-28.429-28.429v-116.59h-30v116.59c0 32.218 26.211 58.429 58.429 58.429s58.429-26.211 58.429-58.429v-116.59h-30z"/><path d="m370.395 229.318-40.84 61.26-40.84-61.26-24.961 16.641 47.774 71.66-47.774 71.66 24.961 16.641 40.84-61.26 40.84 61.26 24.961-16.641-47.773-71.66 47.773-71.66z"/><path d="m422.391 93.392h30v30h-30z"/><path d="m362.391 93.392h30v30h-30z"/><path d="m302.391 93.392h30v30h-30z"/></g></svg>